<svg width="157" height="154" viewBox="0 0 157 154" fill="none" xmlns="http://www.w3.org/2000/svg">
<path d="M104.811 64.3637L118.526 69.478L111.77 56.4431L145.135 30.7311L108.078 48.2262L99.3431 37.2513L97.7755 50.5523L84.0032 54.6449L96.8111 60.2012L95.867 74.5936L104.811 64.3637Z" fill="url(#paint0_linear_192_375)"/>
<path d="M97.8782 60.8322L95.3481 59.5671L138.781 34.688L97.8782 60.8322Z" fill="white"/>
<path d="M84.2964 52.6044C83.1839 49.0927 82.1243 46.4454 81.1176 44.6625C80.164 42.8797 78.813 41.529 77.0647 40.6106C75.3163 39.6921 72.8527 39.2329 69.6739 39.2329H59.3428V63.3015H79.2104V65.7327H59.3428V89.396C59.3428 89.9903 59.4488 90.3955 59.6607 90.6116C59.9256 90.8277 60.4554 91.0168 61.2501 91.1789L64.6673 91.9083V93.529H38.2832V91.9083L41.2236 91.2599C42.0183 91.0979 42.5216 90.9088 42.7335 90.6927C42.9984 90.4766 43.1309 90.0714 43.1309 89.4771V40.8537C43.1309 40.2594 42.9984 39.8542 42.7335 39.6381C42.5216 39.422 42.0183 39.2329 41.2236 39.0708L38.2832 38.4225V36.8018H86.2832V52.6044H84.2964Z" fill="#273CA6"/>
<path d="M89.1081 128.75C89.1081 129.344 89.2163 129.749 89.4328 129.965C89.7033 130.181 90.2445 130.37 91.0562 130.532L94.0594 131.181V132.801H67.5984V131.181L70.6016 130.532C71.4133 130.37 71.9274 130.181 72.1438 129.965C72.4144 129.749 72.5497 129.344 72.5497 128.75V78.3433H70.6828C67.3819 78.3433 64.8116 78.8836 62.9717 79.9641C61.186 81.0446 59.8062 82.4493 58.8321 84.1781C57.9122 85.9069 56.7488 88.6623 55.3419 92.4441H53.5562V76.0742H108.102V92.4441H106.316C104.909 88.6623 103.718 85.9069 102.744 84.1781C101.825 82.4493 100.445 81.0446 98.6049 79.9641C96.8191 78.8836 94.2759 78.3433 90.975 78.3433H89.1081V128.75Z" fill="#DB4D00"/>
<path d="M73.8432 3.92335C98.6612 2.30493 121.417 13.1169 136.03 31.02L123.895 39.1981C112.135 25.4265 94.2516 17.181 74.7905 18.4501C42.0308 20.5864 17.2059 48.8749 19.3422 81.6346C19.8971 90.144 22.2164 98.1181 25.9204 105.223L13.7844 113.402C8.71935 104.196 5.54436 93.7601 4.81542 82.5819C2.15594 41.7995 33.0607 6.58283 73.8432 3.92335Z" fill="#DB4D00"/>
<path d="M82.3088 149.498C57.5018 151.278 34.6759 140.614 19.9471 122.806L32.0289 114.549C43.8781 128.244 61.8147 136.373 81.2672 134.978C114.012 132.629 138.653 104.18 136.304 71.4344C135.694 62.9288 133.323 54.9699 129.573 47.8889L141.655 39.6311C146.78 48.8043 150.023 59.2196 150.824 70.3928C153.749 111.157 123.073 146.574 82.3088 149.498Z" fill="#273CA6"/>
<defs>
<linearGradient id="paint0_linear_192_375" x1="106.733" y1="49.0253" x2="107.577" y2="71.796" gradientUnits="userSpaceOnUse">
<stop stop-color="#BE2F6F"/>
<stop offset="0.680569" stop-color="#EA722D"/>
</linearGradient>
</defs>
</svg>
