<svg width="52" height="36" viewBox="0 0 52 36" fill="none" xmlns="http://www.w3.org/2000/svg">
<path d="M22.397 15.9521C22.3514 16.123 22.266 16.368 22.1406 16.687C22.0153 17.006 21.8729 17.3706 21.7134 17.7808C21.5539 18.1795 21.3773 18.6068 21.1836 19.0625C20.9899 19.5068 20.8019 19.9455 20.6196 20.3784C20.5399 20.5721 20.443 20.7145 20.3291 20.8057C20.2266 20.8968 20.0101 20.9481 19.6797 20.9595L14.6895 21.0449L14.0742 28.6328C14.0628 28.7354 14.0343 28.8379 13.9888 28.9404C13.9432 29.0316 13.8748 29.1056 13.7837 29.1626C13.7495 29.1854 13.6128 29.2537 13.3735 29.3677C13.1457 29.4702 12.8551 29.5955 12.502 29.7437C12.1488 29.8918 11.7614 30.0513 11.3398 30.2222C10.9183 30.3931 10.5024 30.5469 10.0923 30.6836C9.68213 30.8317 9.30615 30.9513 8.96436 31.0425C8.62256 31.145 8.35482 31.1963 8.16113 31.1963C7.93327 31.1963 7.72249 31.1507 7.52881 31.0596C7.34652 30.9798 7.25537 30.8089 7.25537 30.5469C7.24398 29.9772 7.25537 29.3506 7.28955 28.667C7.33512 27.972 7.38639 27.2713 7.44336 26.5649C7.50033 25.8472 7.56299 25.1465 7.63135 24.4629C7.69971 23.7679 7.75667 23.1356 7.80225 22.5659L7.92188 21.1304C6.96484 21.1304 6.28125 21.1076 5.87109 21.062C5.46094 21.005 5.25586 20.8683 5.25586 20.6519C5.25586 20.5037 5.34131 20.3101 5.51221 20.0708C5.75146 19.7404 6.01921 19.3416 6.31543 18.8745C6.62305 18.4074 6.91357 17.9517 7.18701 17.5073C7.47184 17.063 7.7168 16.6699 7.92188 16.3281C8.13835 15.9863 8.27507 15.7756 8.33203 15.6958L8.65674 10.9961C8.44027 10.9961 8.25228 11.0018 8.09277 11.0132C7.93327 11.0132 7.78516 11.0189 7.64844 11.0303C7.52311 11.0303 7.40348 11.036 7.28955 11.0474C7.17562 11.0474 7.05599 11.0474 6.93066 11.0474C6.38379 11.0474 5.99072 11.0189 5.75146 10.9619C5.5236 10.8936 5.40967 10.7739 5.40967 10.603C5.40967 10.5233 5.47803 10.3581 5.61475 10.1074C5.75146 9.85677 5.91667 9.57194 6.11035 9.25293C6.31543 8.92253 6.5319 8.58073 6.75977 8.22754C6.99902 7.86296 7.2098 7.52686 7.39209 7.21924L8.41748 5.47607L16.1934 5.20264C17.196 5.16846 18.1929 5.13428 19.1841 5.1001C20.1753 5.05452 21.0868 5.01465 21.9185 4.98047C22.7616 4.94629 23.485 4.91781 24.0889 4.89502C24.6927 4.86084 25.1143 4.83805 25.3535 4.82666C25.3649 4.82666 25.3934 4.83236 25.439 4.84375C25.4959 4.84375 25.5529 4.86084 25.6099 4.89502C25.6668 4.91781 25.7181 4.96338 25.7637 5.03174C25.8206 5.1001 25.8491 5.19694 25.8491 5.32227C25.8491 5.39062 25.7694 5.61849 25.6099 6.00586C25.4504 6.39323 25.2225 6.96859 24.9263 7.73193L24.1743 9.71436C24.0946 9.90804 24.0034 10.0562 23.9009 10.1587C23.7983 10.2612 23.5819 10.3182 23.2515 10.3296C22.8641 10.341 22.471 10.3581 22.0723 10.3809C21.6735 10.4036 21.2633 10.4264 20.8418 10.4492L15.6465 10.7056C15.5781 11.1499 15.5269 11.4803 15.4927 11.6968C15.4699 11.9132 15.4528 12.0955 15.4414 12.2437C15.4414 12.3804 15.4414 12.5228 15.4414 12.6709C15.4414 12.8076 15.4357 13.0298 15.4243 13.3374C15.4129 13.5539 15.3958 13.7362 15.373 13.8843C15.3617 14.0324 15.3446 14.1805 15.3218 14.3286C15.3104 14.4653 15.2933 14.6134 15.2705 14.7729C15.2591 14.9325 15.2477 15.1318 15.2363 15.3711C15.9883 15.3483 16.7231 15.3255 17.4409 15.3027C18.1701 15.2799 18.8366 15.2572 19.4404 15.2344C20.0557 15.2116 20.5854 15.1945 21.0298 15.1831C21.4741 15.1603 21.7874 15.1489 21.9697 15.1489C22.0609 15.1489 22.1634 15.1831 22.2773 15.2515C22.3913 15.3198 22.4482 15.4508 22.4482 15.6445C22.4482 15.7357 22.4312 15.8382 22.397 15.9521Z" fill="#273CA6"/>
<path d="M35.1182 29.5469C35.1751 28.7152 35.2321 27.9119 35.2891 27.1372C35.346 26.3625 35.3973 25.6105 35.4429 24.8813L36.0581 16.8149C36.1265 16.1997 36.1834 15.6414 36.229 15.1401C36.2746 14.6274 36.3088 14.1318 36.3315 13.6533C36.3657 13.1634 36.3942 12.6735 36.417 12.1836C36.4512 11.6823 36.4854 11.1297 36.5195 10.5259C36.1436 10.5145 35.7448 10.5088 35.3232 10.5088C34.9131 10.5088 34.4801 10.5088 34.0244 10.5088H30.7261C30.6007 10.5088 30.521 10.4632 30.4868 10.3721C30.464 10.2695 30.4526 10.1784 30.4526 10.0986V9.979L32.3325 5.04004L32.3154 4.97168C32.3154 4.91471 32.3496 4.86914 32.418 4.83496C32.4977 4.78939 32.6686 4.75521 32.9307 4.73242C34.5029 4.64128 36.0239 4.55583 37.4937 4.47607C38.9748 4.38493 40.4331 4.30518 41.8687 4.23682C43.3156 4.16846 44.7568 4.1001 46.1924 4.03174C47.6393 3.96338 49.1261 3.90072 50.6528 3.84375C50.7896 3.84375 50.932 3.86084 51.0801 3.89502C51.2396 3.9292 51.3193 4.05452 51.3193 4.271C51.3193 4.29378 51.3136 4.31657 51.3022 4.33936C51.2909 4.36214 51.2852 4.38493 51.2852 4.40771C51.1029 4.87484 50.932 5.31917 50.7725 5.74072C50.6243 6.16227 50.4762 6.57812 50.3281 6.98828C50.18 7.39844 50.0262 7.81429 49.8667 8.23584C49.7186 8.65739 49.5534 9.10173 49.3711 9.56885C49.3597 9.58024 49.3369 9.63721 49.3027 9.73975C49.2686 9.83089 49.2173 9.93913 49.1489 10.0645C49.0806 10.1784 48.9894 10.2866 48.8755 10.3892C48.7616 10.4917 48.6191 10.5487 48.4482 10.5601C48.3913 10.5487 48.3343 10.543 48.2773 10.543C48.2204 10.543 48.1577 10.543 48.0894 10.543H43.5264C43.4694 11.124 43.4124 11.7393 43.3555 12.3887C43.3099 13.0381 43.2529 13.6704 43.1846 14.2856L41.937 27.6328C41.9256 27.7354 41.9028 27.8379 41.8687 27.9404C41.8459 28.043 41.7718 28.117 41.6465 28.1626L36.8101 29.9058C36.6847 29.9513 36.5195 30.0083 36.3145 30.0767C36.1094 30.145 35.91 30.1792 35.7163 30.1792C35.5568 30.1792 35.4144 30.1393 35.2891 30.0596C35.1751 29.9798 35.1182 29.8317 35.1182 29.6152V29.5469Z" fill="#DB4D00"/>
<path d="M25.5791 0C28.3874 3.79708 29.9474 8.55311 29.6826 13.6377C29.076 25.2798 19.146 34.2255 7.50391 33.6191C4.83305 33.48 2.30429 32.85 0 31.8213C1.73281 32.249 3.54429 32.4775 5.40918 32.4775C17.8356 32.4775 27.9092 22.4039 27.9092 9.97754C27.9092 6.39398 27.0695 3.00705 25.5791 0Z" fill="#DB4D00"/>
<path d="M31.6523 12.9561C31.7177 13.8372 31.7298 14.7322 31.6826 15.6377C31.1277 26.2885 22.7692 34.6805 12.4355 35.5684C22.4332 32.2699 29.9826 23.5898 31.6523 12.9561Z" fill="#273CA6"/>
</svg>
