<svg width="47" height="47" viewBox="0 0 47 47" fill="none" xmlns="http://www.w3.org/2000/svg">
<path d="M13.1776 24.6552L11.9097 33.5287C11.8411 34.0498 11.8069 34.4943 11.8069 34.8621C11.8069 35.5977 11.9896 36.1034 12.3551 36.3793C12.7207 36.6552 13.3718 36.7931 14.3084 36.7931L14.0343 39H3L3.30841 36.7931C4.17653 36.7931 4.80478 36.5785 5.19315 36.1494C5.58152 35.7203 5.86708 34.8621 6.04984 33.5747L9.06542 12.6092C9.1568 11.8736 9.20249 11.3985 9.20249 11.1839C9.20249 10.5096 9.054 10.0498 8.75701 9.8046C8.48287 9.52873 7.99169 9.37548 7.28349 9.34483L7.5919 7H25L24.2461 15.046H21.4361C21.2991 13.1456 21.0592 11.9195 20.7165 11.3678C20.3967 10.7854 19.6314 10.4943 18.4206 10.4943H15.2336L13.6916 21.3448H15.4735C16.5244 21.3448 17.2669 21.1303 17.7009 20.7011C18.135 20.272 18.4891 19.3985 18.7632 18.0805H21.2305L19.7913 27.9655H17.324C17.3697 27.5364 17.3925 27.1686 17.3925 26.8621C17.3925 26.0651 17.2212 25.4981 16.8785 25.1609C16.5358 24.8238 15.919 24.6552 15.028 24.6552H13.1776Z" fill="#0A0E8E"/>
<path d="M30.6352 14.9999L27.1196 7L26.2407 14.9999H30.6352Z" fill="#2E3192"/>
<path d="M42.0605 14.9999L42.5 7L37.2266 14.9999H42.0605Z" fill="#A3238E"/>
<path d="M32.8325 26.9998L30.6352 15L28.8774 32.3331L32.8325 26.9998Z" fill="#1197D5"/>
<path d="M34.5898 38.9998L32.832 27L28.8769 32.3333L27.998 38.9998H34.5898Z" fill="#44256D"/>
<path d="M32.3926 24.9996L36.7871 20.333L34.5899 38.9994L32.3926 24.9996Z" fill="#F37121"/>
<path d="M30.6348 15H37.2266L36.7871 20.3333L32.3926 24.9999L30.6348 15Z" fill="#ED2328"/>
<path d="M37.2265 14.9999L42.4999 7H27.1191L30.6347 14.9999H37.2265Z" fill="#89C648"/>
<path d="M41 0C42.3369 0 43.6117 0.264238 44.7773 0.740234L42.7773 2.74023C41.6117 2.26424 40.3369 2 39 2H12C6.47715 2 2 6.47715 2 12V39C2 40.3369 2.26424 41.6117 2.74023 42.7773L0.740234 44.7773C0.264238 43.6117 2.14438e-08 42.3369 0 41V10C0 4.47715 4.47715 8.85854e-08 10 0H41Z" fill="#DB4D00"/>
<path d="M46.1768 4C46.2285 4.41214 46.2588 4.83164 46.2588 5.25781V36.2578C46.2588 41.7807 41.7816 46.2578 36.2588 46.2578H5.25879C4.83228 46.2578 4.41245 46.2276 4 46.1758L6 44.1758C6.41245 44.2276 6.83228 44.2578 7.25879 44.2578H34.2588C39.7816 44.2578 44.2588 39.7807 44.2588 34.2578V7.25781C44.2588 6.83164 44.2285 6.41214 44.1768 6L46.1768 4Z" fill="#273CA6"/>
</svg>
