<svg width="155" height="149" viewBox="0 0 155 149" fill="none" xmlns="http://www.w3.org/2000/svg">
<path d="M73.6992 97.1431L112.508 111.615L93.3912 74.7299L137.967 29.0574L82.9439 51.4781L58.2257 20.4218L53.7895 58.0603L14.8176 69.6414L51.0607 85.3644L48.389 126.091L73.6992 97.1431Z" fill="url(#paint0_linear_193_361)"/>
<path d="M54.0804 87.15L46.9209 83.5703L115.653 45.6719L54.0804 87.15Z" fill="white"/>
<path d="M67.4955 0.291386C92.2697 -1.89638 115.268 8.38972 130.288 25.9525L123.808 30.5385C111.715 16.8632 94.0393 8.23963 74.349 8.23963C37.8985 8.23985 8.34922 37.7891 8.34902 74.2396C8.34902 85.9019 11.3742 96.8581 16.682 106.366L9.9662 111.12C4.69116 102.033 1.27684 91.6725 0.291399 80.514C-3.30379 39.8035 26.7849 3.88665 67.4955 0.291386Z" fill="#DB4D00"/>
<path d="M137.861 37.1109C143.079 46.2311 146.428 56.6127 147.343 67.777C150.685 108.509 120.374 144.239 79.6415 147.58C54.8541 149.613 31.9203 139.183 17.01 121.527L24.0547 116.605C35.9781 130.778 53.7654 139.88 73.7387 140.134C110.187 140.598 140.109 111.427 140.573 74.9795C140.729 62.7293 137.538 51.2163 131.847 41.311L137.861 37.1109Z" fill="#273CA6"/>
<defs>
<linearGradient id="paint0_linear_193_361" x1="79.1378" y1="53.7393" x2="81.5243" y2="118.175" gradientUnits="userSpaceOnUse">
<stop stop-color="#BE2F6F"/>
<stop offset="0.680569" stop-color="#EA722D"/>
</linearGradient>
</defs>
</svg>
